<svg id="svg" version="1.1" xmlns="http://www.w3.org/2000/svg" xmlns:xlink="http://www.w3.org/1999/xlink" width="400" height="400" viewBox="0, 0, 400,400"><g id="svgg"><path id="path0" d="M308.900 120.232 L 284.400 144.798 284.400 218.599 L 284.400 292.400 210.999 292.400 L 137.598 292.400 112.999 316.999 C 99.470 330.529,88.400 341.869,88.400 342.199 C 88.400 342.732,102.282 342.800,211.600 342.800 L 334.800 342.800 334.800 219.200 C 334.800 101.740,334.765 95.602,334.100 95.633 C 333.715 95.651,322.375 106.721,308.900 120.232 " stroke="none" fill="#fcfcfc" fill-rule="evenodd"></path><path id="path1" d="M311.200 73.701 C 311.200 73.977,300.220 85.181,286.800 98.600 C 263.520 121.877,261.867 123.600,262.801 123.600 C 263.454 123.600,312.400 74.457,312.400 73.801 C 312.400 73.470,312.130 73.200,311.800 73.200 C 311.470 73.200,311.200 73.426,311.200 73.701 M91.400 294.800 C 77.981 308.220,66.777 319.200,66.501 319.200 C 66.226 319.200,66.000 319.470,66.000 319.800 C 66.000 320.130,66.270 320.400,66.601 320.400 C 67.257 320.400,116.400 271.454,116.400 270.801 C 116.400 269.867,114.677 271.520,91.400 294.800 " stroke="none" fill="#c4c4c4" fill-rule="evenodd"></path><path id="path2" d="M66.000 196.200 C 66.000 278.428,66.133 319.200,66.402 319.200 C 66.624 319.200,77.783 308.220,91.200 294.800 C 104.617 281.380,115.776 270.400,115.998 270.400 C 116.266 270.400,116.400 245.962,116.400 197.000 L 116.400 123.600 189.400 123.600 C 238.094 123.600,262.400 123.466,262.400 123.198 C 262.400 122.976,273.380 111.817,286.800 98.400 C 300.220 84.983,311.200 73.824,311.200 73.602 C 311.200 73.333,270.560 73.200,188.600 73.200 L 66.000 73.200 66.000 196.200 M177.200 207.600 L 177.200 230.800 200.400 230.800 L 223.600 230.800 223.600 207.600 L 223.600 184.400 200.400 184.400 L 177.200 184.400 177.200 207.600 " stroke="none" fill="#949494" fill-rule="evenodd"></path><path id="path3" d="" stroke="none" fill="#e4100c8" fill-rule="evenodd"></path><path id="path4" d="" stroke="none" fill="#aca8cc" fill-rule="evenodd"></path></g></svg>