<svg id="svg" version="1.1" xmlns="http://www.w3.org/2000/svg" xmlns:xlink="http://www.w3.org/1999/xlink" width="400" height="400" viewBox="0, 0, 400,400"><g id="svgg"><path id="path0" d="M66.000 196.800 C 66.000 306.474,66.068 320.400,66.601 320.400 C 66.931 320.400,78.271 309.330,91.801 295.801 L 116.400 271.202 116.400 197.401 L 116.400 123.600 189.801 123.600 L 263.202 123.600 287.801 99.001 C 301.330 85.471,312.400 74.131,312.400 73.801 C 312.400 73.268,298.518 73.200,189.200 73.200 L 66.000 73.200 66.000 196.800 " stroke="none" fill="#fcfcfc" fill-rule="evenodd"></path><path id="path1" d="M308.900 120.232 C 286.636 142.557,283.733 145.600,284.701 145.600 C 284.867 145.600,295.981 134.620,309.400 121.200 C 322.819 107.780,334.023 96.800,334.299 96.800 C 334.574 96.800,334.800 96.530,334.800 96.200 C 334.800 94.510,331.490 97.581,308.900 120.232 M112.900 317.032 C 90.091 339.903,87.404 342.800,89.000 342.800 C 89.330 342.800,89.600 342.574,89.600 342.299 C 89.600 342.023,100.580 330.819,114.000 317.400 C 127.420 303.981,138.400 292.867,138.400 292.701 C 138.400 291.634,134.889 294.984,112.900 317.032 " stroke="none" fill="#c4c4c4" fill-rule="evenodd"></path><path id="path2" d="M309.600 121.200 C 296.290 134.584,285.175 145.550,284.900 145.567 C 284.502 145.593,284.400 160.564,284.400 219.000 L 284.400 292.400 211.400 292.400 C 162.706 292.400,138.400 292.534,138.400 292.802 C 138.400 293.024,127.420 304.183,114.000 317.600 C 100.580 331.017,89.600 342.176,89.600 342.398 C 89.600 342.667,130.240 342.800,212.200 342.800 L 334.800 342.800 334.800 219.800 C 334.800 121.649,334.699 96.807,334.300 96.833 C 334.025 96.850,322.910 107.816,309.600 121.200 M177.200 207.600 L 177.200 230.800 200.400 230.800 L 223.600 230.800 223.600 207.600 L 223.600 184.400 200.400 184.400 L 177.200 184.400 177.200 207.600 " stroke="none" fill="#949494" fill-rule="evenodd"></path><path id="path3" d="" stroke="none" fill="#e4100c8" fill-rule="evenodd"></path><path id="path4" d="" stroke="none" fill="#aca8cc" fill-rule="evenodd"></path></g></svg>